USFL
nRows=110
nColumns=2
inDegrees=yes
endheader
time	med_gas_r	
3.75	 39.714702	
3.8125	 41.277431	
3.875	 41.330687	
3.9375	 41.388950	
4	 41.433328	
4.0625	 41.437344	
4.125	 41.371935	
4.1875	 41.213723	
4.25	 41.174258	
4.3125	 41.232860	
4.375	 41.304610	
4.4375	 41.285949	
4.5	 41.188117	
4.5625	 41.300460	
4.625	 41.276704	
4.6875	 41.178418	
4.75	 41.290477	
4.8125	 41.236854	
4.875	 41.208768	
4.9375	 41.089961	
5	 41.142450	
5.0625	 41.069140	
5.125	 41.143055	
5.1875	 41.152213	
5.25	 41.164905	
5.3125	 41.098311	
5.375	 41.085002	
5.4375	 41.110872	
5.5	 41.096225	
5.5625	 41.120244	
5.625	 41.004279	
5.6875	 41.079498	
5.75	 41.101339	
5.8125	 38.214217	
5.875	 36.578010	
5.9375	 36.777536	
6	 36.352808	
6.0625	 36.455543	
6.125	 35.825924	
6.1875	 35.751527	
6.25	 35.702771	
6.3125	 35.407612	
6.375	 31.216998	
6.4375	 31.086600	
6.5	 31.524288	
6.5625	 31.297428	
6.625	 27.401942	
6.6875	 25.843624	
6.75	 23.823445	
6.8125	 23.715517	
6.875	 23.656011	
6.9375	 23.941775	
7	 24.146956	
7.0625	 24.362118	
7.125	 24.699067	
7.1875	 24.972003	
7.25	 25.183160	
7.3125	 25.339717	
7.375	 25.861844	
7.4375	 26.161871	
7.5	 26.331539	
7.5625	 27.538936	
7.625	 27.746424	
7.6875	 27.573957	
7.75	 27.216587	
7.8125	 27.119870	
7.875	 27.139718	
7.9375	 26.990217	
8	 26.922448	
8.0625	 27.016865	
8.125	 27.171690	
8.1875	 27.240172	
8.25	 27.179808	
8.3125	 27.315996	
8.375	 27.541491	
8.4375	 27.684322	
8.5	 27.534451	
8.5625	 27.273124	
8.625	 26.508442	
8.6875	 25.993121	
8.75	 25.589788	
8.8125	 25.109341	
8.875	 25.023207	
8.9375	 24.647032	
9	 24.380956	
9.0625	 24.391113	
9.125	 24.337209	
9.1875	 24.389841	
9.25	 24.463337	
9.3125	 24.357000	
9.375	 24.464583	
9.4375	 24.404350	
9.5	 24.347823	
9.5625	 24.185792	
9.625	 24.066572	
9.6875	 23.920700	
9.75	 23.465600	
9.8125	 23.303790	
9.875	 23.691129	
9.9375	 26.134133	
10	 25.929000	
10.0625	 26.159465	
10.125	 29.551365	
10.1875	 31.939360	
10.25	 34.232005	
10.3125	 37.449768	
10.375	 36.575925	
10.4375	 41.160935	
10.5	 41.061763	
10.5625	 40.465030	
